#!OML:ASF G:\ViconDB\ViconDB\414\test\team2\shane.ASF
:FULLY-SPECIFIED
:DEGREES
209
root 11.5041 16.2408 -1.67649 359.398 -20.5174 -5.48269
lowerback 10.1715 -0.421119 1.054
upperback 4.47614 -0.479092 0.863348
thorax -1.05244 -0.249816 0.351435
lowerneck -27.1533 2.65903 -0.539385
upperneck 17.2109 4.73571 -3.74322
head 9.99947 1.66214 -0.488326
rclavicle 8.54774e-015 -3.22031e-014
rhumerus -36.0185 15.2736 -91.3785
rradius 50.3999
rwrist 39.6219
rhand -35.3512 -10.5436
rfingers 7.12502
rthumb -8.4837 -40.3532
lclavicle 8.54774e-015 -3.22031e-014
lhumerus -39.331 -32.2684 107.194
lradius 35.7882
lwrist -7.84304
lhand -41.2376 7.85693
lfingers 7.12502
lthumb -14.1605 37.3543
rfemur -21.4727 1.25238 13.9961
rtibia 44.0661
rfoot -22.7002 -4.9498
rtoes -14.9099
lfemur -0.462688 0.540338 -1.32412
ltibia 37.183
lfoot -32.2254 3.49882
ltoes -18.0689
210
root 11.4702 16.2813 -1.58299 359.575 -20.0417 -5.60615
lowerback 9.90858 -0.464336 0.948029
upperback 4.31831 -0.544651 0.914275
thorax -1.0711 -0.283225 0.46907
lowerneck -27.1812 2.74934 -0.515528
upperneck 17.0567 4.85008 -3.77546
head 9.95216 1.71555 -0.485395
rclavicle 1.78906e-014 -1.11319e-014
rhumerus -36.7026 16.2295 -92.9335
rradius 50.5665
rwrist 39.0857
rhand -35.4318 -9.94579
rfingers 7.12502
rthumb -8.56151 -39.7522
lclavicle 1.78906e-014 -1.11319e-014
lhumerus -38.9065 -32.6317 107.184
lradius 34.6378
lwrist -7.63944
lhand -40.9475 7.6774
lfingers 7.12502
lthumb -13.8811 37.1941
rfemur -21.8502 2.37316 14.9057
rtibia 43.6459
rfoot -23.4984 -3.563
rtoes -14.7598
lfemur -0.0543961 0.395297 -1.20352
ltibia 36.4139
lfoot -31.8744 3.13831
ltoes -18.271
211
root 11.4292 16.3207 -1.48765 359.651 -19.5155 -5.7774
lowerback 9.69352 -0.522543 0.88812
upperback 4.2016 -0.625824 0.974793
thorax -1.07291 -0.324059 0.572242
lowerneck -27.1655 2.84228 -0.419401
upperneck 16.8655 4.96242 -3.91369
head 9.88973 1.7611 -0.53249
rclavicle 4.57205e-014 -1.03368e-014
rhumerus -37.3271 17.2064 -94.4056
rradius 50.7192
rwrist 38.5035
rhand -34.8546 -9.96064
rfingers 7.12502
rthumb -8.00445 -39.7891
lclavicle 4.57205e-014 -1.03368e-014
lhumerus -38.669 -33.4015 107.281
lradius 33.6825
lwrist -7.42758
lhand -40.4161 8.14087
lfingers 7.12502
lthumb -13.3689 37.692
rfemur -22.0879 3.24021 15.8684
rtibia 43.2271
rfoot -23.9792 -1.64685
rtoes -14.4941
lfemur 0.441931 -0.375054 -1.14509
ltibia 35.6799
lfoot -31.4995 3.28914
ltoes -18.5493
212
root 11.3865 16.3532 -1.39461 359.672 -18.9266 -5.76494
lowerback 9.50339 -0.577716 0.62018
upperback 4.06621 -0.72047 1.01225
thorax -1.105 -0.373332 0.76995
lowerneck -27.2814 2.92337 -0.385695
upperneck 16.8956 5.0604 -3.899
head 9.92213 1.80784 -0.515652
rclavicle 3.8266e-014 -1.35174e-014
rhumerus -37.9804 17.5142 -95.7744
rradius 50.7065
rwrist 38.0958
rhand -35.1025 -10.5517
rfingers 7.12502
rthumb -8.24366 -40.3709
lclavicle 3.8266e-014 -1.35174e-014
lhumerus -38.0664 -33.4709 107.033
lradius 32.2994
lwrist -8.07347
lhand -40.0271 7.81565
lfingers 7.12502
lthumb -12.9939 37.391
rfemur -22.372 4.33049 16.6251
rtibia 42.8398
rfoot -24.5015 -0.157614
rtoes -14.9429
lfemur 0.908037 -0.987869 -1.22286
ltibia 34.9909
lfoot -31.0052 3.32057
ltoes -19.071
213
root 11.3431 16.3666 -1.30194 359.643 -18.2992 -5.91231
lowerback 9.32363 -0.626037 0.594196
upperback 3.98561 -0.785877 1.04444
thorax -1.08844 -0.405695 0.822685
lowerneck -27.281 2.95351 -0.365373
upperneck 16.7732 5.06219 -3.79328
head 9.87451 1.82667 -0.481625
rclavicle 7.48424e-014 -1.31198e-014
rhumerus -38.4907 17.9718 -96.9199
rradius 50.6842
rwrist 37.9492
rhand -34.6358 -10.3707
rfingers 7.12502
rthumb -7.79328 -40.2071
lclavicle 7.48424e-014 -1.31198e-014
lhumerus -37.6428 -34.0266 106.937
lradius 31.4966
lwrist -7.23506
lhand -39.2254 7.87935
lfingers 7.12502
lthumb -12.2209 37.5023
rfemur -22.4567 4.89926 17.6
rtibia 42.4827
rfoot -25.0395 1.64091
rtoes -15.83
lfemur 1.4112 -1.73933 -1.12448
ltibia 34.4186
lfoot -30.8025 3.4602
ltoes -19.3009
